<mxfile host="65bd71144e">
    <diagram id="f4IXBKTb8F5gnXCqWnkR" name="firehose-approch">
        <mxGraphModel dx="835" dy="350" grid="1" gridSize="10" guides="1" tooltips="1" connect="1" arrows="1" fold="1" page="1" pageScale="1" pageWidth="850" pageHeight="1100" math="0" shadow="0">
            <root>
                <mxCell id="0"/>
                <mxCell id="1" parent="0"/>
                <mxCell id="-ePK26zGapYwqtlHT7hk-8" style="edgeStyle=none;html=1;" parent="1" source="-ePK26zGapYwqtlHT7hk-2" edge="1">
                    <mxGeometry relative="1" as="geometry">
                        <mxPoint x="650" y="260" as="targetPoint"/>
                    </mxGeometry>
                </mxCell>
                <mxCell id="4lCO9ys19Pb8gbLMdgEE-2" style="edgeStyle=none;html=1;entryX=0.5;entryY=1;entryDx=0;entryDy=0;entryPerimeter=0;" parent="1" source="-ePK26zGapYwqtlHT7hk-2" target="4lCO9ys19Pb8gbLMdgEE-1" edge="1">
                    <mxGeometry relative="1" as="geometry"/>
                </mxCell>
                <mxCell id="3" style="edgeStyle=none;html=1;" edge="1" parent="1">
                    <mxGeometry relative="1" as="geometry">
                        <mxPoint x="440" y="280" as="sourcePoint"/>
                        <mxPoint x="650" y="280" as="targetPoint"/>
                    </mxGeometry>
                </mxCell>
                <mxCell id="-ePK26zGapYwqtlHT7hk-2" value="" style="sketch=0;points=[[0,0,0],[0.25,0,0],[0.5,0,0],[0.75,0,0],[1,0,0],[0,1,0],[0.25,1,0],[0.5,1,0],[0.75,1,0],[1,1,0],[0,0.25,0],[0,0.5,0],[0,0.75,0],[1,0.25,0],[1,0.5,0],[1,0.75,0]];outlineConnect=0;fontColor=#232F3E;gradientColor=#945DF2;gradientDirection=north;fillColor=#5A30B5;strokeColor=#ffffff;dashed=0;verticalLabelPosition=bottom;verticalAlign=top;align=center;html=1;fontSize=12;fontStyle=0;aspect=fixed;shape=mxgraph.aws4.resourceIcon;resIcon=mxgraph.aws4.kinesis_data_firehose;" parent="1" vertex="1">
                    <mxGeometry x="320" y="200" width="120" height="120" as="geometry"/>
                </mxCell>
                <mxCell id="-ePK26zGapYwqtlHT7hk-4" style="edgeStyle=none;html=1;entryX=0;entryY=0.5;entryDx=0;entryDy=0;entryPerimeter=0;" parent="1" source="-ePK26zGapYwqtlHT7hk-3" target="-ePK26zGapYwqtlHT7hk-2" edge="1">
                    <mxGeometry relative="1" as="geometry"/>
                </mxCell>
                <mxCell id="-ePK26zGapYwqtlHT7hk-3" value="" style="sketch=0;points=[[0,0,0],[0.25,0,0],[0.5,0,0],[0.75,0,0],[1,0,0],[0,1,0],[0.25,1,0],[0.5,1,0],[0.75,1,0],[1,1,0],[0,0.25,0],[0,0.5,0],[0,0.75,0],[1,0.25,0],[1,0.5,0],[1,0.75,0]];outlineConnect=0;fontColor=#232F3E;gradientColor=#945DF2;gradientDirection=north;fillColor=#5A30B5;strokeColor=#ffffff;dashed=0;verticalLabelPosition=bottom;verticalAlign=top;align=center;html=1;fontSize=12;fontStyle=0;aspect=fixed;shape=mxgraph.aws4.resourceIcon;resIcon=mxgraph.aws4.kinesis_data_streams;" parent="1" vertex="1">
                    <mxGeometry x="150" y="221" width="78" height="78" as="geometry"/>
                </mxCell>
                <mxCell id="-ePK26zGapYwqtlHT7hk-7" value="" style="outlineConnect=0;dashed=0;verticalLabelPosition=bottom;verticalAlign=top;align=center;html=1;shape=mxgraph.aws3.s3;fillColor=#E05243;gradientColor=none;" parent="1" vertex="1">
                    <mxGeometry x="651.75" y="217" width="76.5" height="93" as="geometry"/>
                </mxCell>
                <mxCell id="-ePK26zGapYwqtlHT7hk-10" value="Data Stream" style="text;html=1;align=center;verticalAlign=middle;resizable=0;points=[];autosize=1;strokeColor=none;fillColor=none;" parent="1" vertex="1">
                    <mxGeometry x="144" y="310" width="90" height="30" as="geometry"/>
                </mxCell>
                <mxCell id="-ePK26zGapYwqtlHT7hk-11" value="Data Firehose" style="text;html=1;align=center;verticalAlign=middle;resizable=0;points=[];autosize=1;strokeColor=none;fillColor=none;" parent="1" vertex="1">
                    <mxGeometry x="330" y="330" width="100" height="30" as="geometry"/>
                </mxCell>
                <mxCell id="-ePK26zGapYwqtlHT7hk-13" value="onFail=&lt;span style=&quot;background-color: rgb(34, 39, 46); color: rgb(173, 186, 199); font-family: Consolas, &amp;quot;Courier New&amp;quot;, monospace; font-size: 14px;&quot;&gt;firehose-error/&lt;/span&gt;" style="text;html=1;align=center;verticalAlign=middle;resizable=0;points=[];autosize=1;strokeColor=none;fillColor=none;" parent="1" vertex="1">
                    <mxGeometry x="460" y="280" width="180" height="30" as="geometry"/>
                </mxCell>
                <mxCell id="-ePK26zGapYwqtlHT7hk-14" value="Destination S3" style="text;html=1;align=center;verticalAlign=middle;resizable=0;points=[];autosize=1;strokeColor=none;fillColor=none;" parent="1" vertex="1">
                    <mxGeometry x="628.25" y="130" width="100" height="30" as="geometry"/>
                </mxCell>
                <mxCell id="2WNXwPVknruo0U74Hc9Q-1" value="success=&lt;span style=&quot;background-color: rgb(34, 39, 46); color: rgb(173, 186, 199); font-family: Consolas, &amp;quot;Courier New&amp;quot;, monospace; font-size: 14px;&quot;&gt;firehose-data/&lt;/span&gt;" style="text;html=1;align=center;verticalAlign=middle;resizable=0;points=[];autosize=1;strokeColor=none;fillColor=none;" parent="1" vertex="1">
                    <mxGeometry x="460" y="230" width="180" height="30" as="geometry"/>
                </mxCell>
                <mxCell id="4lCO9ys19Pb8gbLMdgEE-1" value="" style="outlineConnect=0;dashed=0;verticalLabelPosition=bottom;verticalAlign=top;align=center;html=1;shape=mxgraph.aws3.lambda_function;fillColor=#F58534;gradientColor=none;" parent="1" vertex="1">
                    <mxGeometry x="360" y="120" width="40" height="40" as="geometry"/>
                </mxCell>
                <mxCell id="4lCO9ys19Pb8gbLMdgEE-3" value="transform" style="text;html=1;align=center;verticalAlign=middle;resizable=0;points=[];autosize=1;strokeColor=none;fillColor=none;" parent="1" vertex="1">
                    <mxGeometry x="345" y="90" width="70" height="30" as="geometry"/>
                </mxCell>
            </root>
        </mxGraphModel>
    </diagram>
</mxfile>